IKResults C01
version=1
nRows=9
nColumns=24
inDegrees=yes

Units are S.I. units (second, meters, Newtons, ...)
If the header above contains a line with 'inDegrees', this indicates whether rotational values are in degrees (yes) or radians (no).

endheader
time	pelvis_tilt	pelvis_list	pelvis_rotation	pelvis_tx	pelvis_ty	pelvis_tz	hip_flexion_r	hip_adduction_r	hip_rotation_r	knee_angle_r	ankle_angle_r	subtalar_angle_r	mtp_angle_r	hip_flexion_l	hip_adduction_l	hip_rotation_l	knee_angle_l	ankle_angle_l	subtalar_angle_l	mtp_angle_l	lumbar_extension	lumbar_bending	lumbar_rotation
      6.68000000	     -2.49854235	      5.88472183	    -95.71577501	     -0.23496876	      0.92304031	     -5.28341444	     -9.73981627	      7.34376937	      5.60889003	    -16.31041846	     22.64249256	     -0.78886119	      0.00000000	     38.27511566	     -1.84409360	     -1.14700282	    -13.04790585	      9.86818758	     -1.84749435	      0.00000000	     -9.37064130	      1.26360525	     12.79389068
      6.69000000	     -2.25032914	      6.02272812	    -96.01894065	     -0.23496766	      0.92171896	     -5.26827582	     -9.74550520	      6.87845259	      5.54787134	    -17.63990995	     22.25780616	     -0.40238482	      0.00000000	     38.18309718	     -1.76909142	     -2.00310009	    -14.36265193	      8.81601419	     -1.51861389	      0.00000000	     -9.09441681	      0.84559402	     12.76560464
      6.70000000	     -1.94660480	      6.09189293	    -96.13146643	     -0.23467583	      0.92059512	     -5.25279444	     -9.82009676	      6.39428869	      5.43713194	    -18.93627519	     21.67588423	      0.06499986	      0.00000000	     38.00378757	     -1.42516505	     -3.05133446	    -14.93567869	      7.43763354	     -1.92653636	      0.00000000	     -8.86150913	      0.36259358	     12.50247329
      6.71000000	     -1.62153776	      6.12627428	    -96.15954296	     -0.23436801	      0.91987895	     -5.23748423	     -9.78004643	      5.94031560	      5.31381202	    -20.41515182	     20.81254335	      0.47276285	      0.00000000	     37.65770544	     -0.96615482	     -3.85121195	    -14.74039672	      4.84337971	     -3.51758854	      0.00000000	     -8.71733171	     -0.15961926	     12.10197878
      6.72000000	     -1.17046908	      6.19793351	    -95.97152510	     -0.23385863	      0.91954321	     -5.22209747	     -9.56648479	      5.42627104	      4.92164330	    -22.01898404	     19.47077183	      0.35468781	      0.00000000	     37.10340564	     -0.29890439	     -4.09318899	    -14.82448041	      2.58342436	     -6.70178184	      0.00000000	     -8.59049911	     -0.88049708	     11.52617022
      6.73000000	     -0.67148281	      6.28796415	    -95.77632506	     -0.23340208	      0.91960311	     -5.20659147	     -9.15869802	      4.84020021	      4.34838699	    -23.82892587	     18.04179231	      0.37891224	      0.00000000	     36.56600280	      0.47457036	     -3.63253309	    -14.76235699	     -0.00771709	     -9.16262206	      0.00000000	     -8.19019950	     -1.57845295	     10.93130624
      6.74000000	     -0.18504871	      6.30201313	    -95.52121451	     -0.23289434	      0.91986318	     -5.19060403	     -8.75883600	      4.27488403	      3.80613245	    -25.73023863	     16.54240456	      0.66597077	      0.00000000	     36.21538710	      1.27148161	     -2.97909118	    -15.37482450	     -1.62061302	     -9.50593452	      0.00000000	     -7.92993606	     -2.29784409	     10.36888839
      6.75000000	      0.41508748	      6.27954186	    -95.25127643	     -0.23227873	      0.92064402	     -5.17481929	     -8.12130353	      3.44981246	      2.76777198	    -27.91846163	     14.03332812	      1.29061269	      0.00000000	     35.91264974	      2.17054711	     -2.43341574	    -16.27322970	     -2.87371075	    -10.19731092	      0.00000000	     -7.75741374	     -3.16840792	      9.70312462
      6.76000000	      0.98014440	      6.23066867	    -94.87754166	     -0.23150165	      0.92176936	     -5.15923379	     -7.31169804	      2.62812964	      1.63770822	    -30.37921323	     11.71107421	      1.32695536	      0.00000000	     35.56523168	      3.15538921	     -1.62263998	    -17.18625018	     -4.40625547	    -12.38471155	      0.00000000	     -7.71253787	     -4.01656679	      8.91519167
